<svg xmlns="http://www.w3.org/2000/svg" width="46.776" height="44.834" viewBox="0 0 46.776 44.834"><defs><style>.a{fill:#1d9f6e;opacity:0.632;}</style></defs><path class="a" d="M46.776,44.834H0l6.967-5.356V15.871H0L23.487,0,46.776,15.871H40.009V39.478l6.765,5.354ZM32.454,16.782a2,2,0,0,0-2,2v19.57a2,2,0,0,0,2,2h.435a2,2,0,0,0,2-2V18.782a2,2,0,0,0-2-2Zm-9.607,0a2,2,0,0,0-2,2v19.57a2,2,0,0,0,2,2h.435a2,2,0,0,0,2-2V18.782a2,2,0,0,0-2-2Zm-8.869,0a2,2,0,0,0-2,2v19.57a2,2,0,0,0,2,2h.435a2,2,0,0,0,2-2V18.782a2,2,0,0,0-2-2Zm8.3-11.312a3.315,3.315,0,1,0,3.326,3.315A3.324,3.324,0,0,0,22.279,5.47Z" transform="translate(0 0)"/></svg>